<svg id="Layer_1" data-name="Layer 1" xmlns="http://www.w3.org/2000/svg" viewBox="0 0 20.82 16.17"><path d="M18.88,0H1.94A1.94,1.94,0,0,0,0,1.94V14.23a1.94,1.94,0,0,0,1.94,1.94H18.88a1.94,1.94,0,0,0,1.94-1.94V1.94A1.94,1.94,0,0,0,18.88,0Zm.93,14.22a.94.94,0,0,1-.27.67.91.91,0,0,1-.66.28H1.94A.94.94,0,0,1,1,14.23V7.09H19.81Zm0-8.13H1V3.73H19.81Zm0-3.36H1V1.94A.94.94,0,0,1,1.94,1H18.88a.94.94,0,0,1,.94.94Z"/><path d="M13.42,13.66h.1a2,2,0,0,0,1.3-.48L15,13a1.93,1.93,0,0,0,2.72.15,1.94,1.94,0,0,0,.15-2.73,2,2,0,0,0-1.4-.64h0a1.93,1.93,0,0,0-1.44.65,1.91,1.91,0,0,0-1.34-.65,1.94,1.94,0,1,0-.23,3.87Zm3-2.88a.94.94,0,1,1-.94.94A.94.94,0,0,1,16.43,10.78Zm-2.87,0a.94.94,0,1,1-.94.94A.94.94,0,0,1,13.56,10.78Z"/></svg>