<svg id="Layer_1" data-name="Layer 1" xmlns="http://www.w3.org/2000/svg" viewBox="0 0 387.4 326.64"><path d="M387.4,88.25c0-5-1.76-8.09-5.91-10.48q-31.15-17.94-62.26-35.94c-22.38-12.93-45.52-26.3-68.3-39.41A17.4,17.4,0,0,0,242.57.21c-19-.11-38.25-.1-56.89-.09H171.07c-.26,0-.55,0-.85-.06a5,5,0,0,0-3.67.65l-.22.17c-1.92,1.5-4.31,3.36-4.5,5.8-.23,2.88,2.64,5.69,3.89,6.76s3.24,1.08,4.77,1l.87,0q18.94,0,37.9,0h9l-9.43,5.45C176.42,38.68,142.93,58.05,110,77a9.65,9.65,0,0,1-4.62,1.12c-34,.09-65.22.09-95.43,0-3.15,0-6.74.44-9.46,3.83L0,82.55v5L.25,88c2.29,4.14,6.13,4.69,9.25,4.69h.06c23.38-.06,47.16,0,70.14,0h22.79V156.3H46l-.85,0a14.37,14.37,0,0,0-3.28.2c-3.65.77-5.8,3.25-5.9,6.79-.11,3.78,2,6.43,5.88,7.28a13.45,13.45,0,0,0,3.3.2h57.43v63.69H79.78c-23,0-46.81,0-70.22,0H9.5c-3.13,0-7,.54-9.26,4.7l-.24.45v5l.44.55c2.74,3.39,6.31,3.82,9.46,3.83q22.25-.06,44.47,0c16.22,0,33,0,49.48-.07h.06a15.28,15.28,0,0,1,8,2.24q30,17.4,60,34.75,33.63,19.47,67.23,39a12.06,12.06,0,0,0,6,1.91,10.57,10.57,0,0,0,5.31-1.56c42.24-24.56,86.35-50.09,131.11-75.88,4.05-2.34,5.78-5.38,5.77-10.18C387.28,187,387.28,136.29,387.4,88.25ZM212.06,34.69l9.63-5.59,5.18-3c5.49-3.19,11.18-6.5,16.84-9.59a3.73,3.73,0,0,1,2.63-.14c36.37,20.94,73.29,42.33,109,63l10.42,6-3.54,2.06c-10,5.79-20.29,11.78-30.5,17.55a3.6,3.6,0,0,1-2.3.29c-36.87-21.23-74.3-42.91-110.49-63.88l-9.24-5.36ZM302,140.88c0-1.66.31-2.24,1.62-3,5.28-2.93,10.49-5.95,16-9.16l3.51-2v20.06c0,7,0,14.32-.06,21.47a4.7,4.7,0,0,1-.42,1.91c-5.82,3.53-11.7,6.92-17.93,10.51l-2.68,1.55v-2.69c0-3.28,0-6.55,0-9.83C302.08,160.25,302.09,150.48,302,140.88Zm-124.92-86c6.07-3.55,11.8-6.9,17.72-10.1a7.06,7.06,0,0,1,2.75,1C225.65,62,254.18,78.48,281.77,94.45L293.08,101l16.69,9.67,6.17,3.58L313,116c-5.95,3.46-11.57,6.72-17.29,9.81a4.5,4.5,0,0,1-2.68-.6C268.8,111.24,244.2,97,220.4,83.24l-9.94-5.75c-8.86-5.12-17.72-10.26-26.7-15.46l-9.48-5.49ZM238,280.19v27.17l-.42-.24-29.4-17Q163.57,264.34,119,238.59c-1.55-.9-1.91-1.43-1.9-2.85.06-36.49.06-73.6.06-109.48V97.81l43.4,25.12q37.69,21.81,75.4,43.61c1.69,1,2.08,1.34,2.08,2.73C238,206.25,238,243.84,238,280.19Zm8.49-125.85a3.31,3.31,0,0,1-2.26.22C206.88,133.12,169,111.21,132.4,90l-8-4.64,5.3-3.07c10.16-5.88,19.76-11.44,29.55-16.91a4.94,4.94,0,0,1,2.71.69c25,14.37,50.33,29.05,74.86,43.25l16.14,9.34,20.72,12,6.94,4-4.76,2.76C266.23,143,256.28,148.79,246.44,154.34Zm124,84.76c-30.55,17.59-61.57,35.55-91.57,52.91l-26,15-.55.31V279.07c0-35.47,0-72.15-.09-108.23,0-2.57.62-3.63,2.92-4.91,7.66-4.26,15.37-8.74,22.82-13.08l9-5.2.77-.44v14.38q0,15.32,0,30.64c0,4.35,1.23,7.25,3.63,8.64s5.45,1,9.13-1.13c3.39-2,6.76-3.91,10.14-5.88,6.84-4,13.92-8.11,20.95-12,4.21-2.33,6-5.47,5.94-10.5-.1-9.2-.09-18.56-.09-27.61,0-7.53,0-15.33,0-23a3.31,3.31,0,0,1,2-3.53c8-4.53,16.12-9.23,23.95-13.78L372.76,98l.15-.09v27.56c0,35.7,0,72.62.08,108.93C373,236.9,372.44,237.92,370.39,239.1Z"/><path d="M43.94,14.44c10.33,0,21.47,0,33,0,14.76,0,30.22,0,45.54-.1a8.78,8.78,0,0,0,6.41-3c1.38-1.83,1.91-5.57.5-7.44a9.89,9.89,0,0,0-7-3.73c-9.92-.19-20-.16-29.76-.14-3.19,0-6.33,0-9.56,0H72.23q-14,0-28,0c-2.87,0-5.06.75-6.51,2.21a6.69,6.69,0,0,0-1.84,4.94C35.92,11.63,39.08,14.43,43.94,14.44Z"/></svg>