<svg id="Layer_1" data-name="Layer 1" xmlns="http://www.w3.org/2000/svg" viewBox="0 0 384 326.21"><path d="M374.07,176.1c-28.24.12-56.48.06-84.72.06h-4.28c5.39-5.87,10.51-10.85,14.95-16.37C336.81,114,343.65,62.11,330.71,6.33c-1.14-4.92-4-6.71-9.12-6.26-27.5,2.38-54.29,8-80.08,18-35.38,13.69-66,34.13-89.84,64-5.11,6.4-9.58,13.33-14.38,20.06a1.29,1.29,0,0,1-.51-.18c-.59-.47-1.14-1-1.69-1.48a131.7,131.7,0,0,0-42-26.25,121.46,121.46,0,0,0-48.34-8.49c-6.92.24-9,2.49-9.64,9.29a158.11,158.11,0,0,0,1.71,40c3.49,21.71,11.08,41.68,25.87,58.43.61.69,1.15,1.45,2.2,2.8H60.21c-16.74,0-33.49.1-50.23-.06-4.62,0-8,1.31-10,5.64V320.49c2.09,4.68,5.92,5.73,10.71,5.72q114.54-.1,229.08-.06a25.68,25.68,0,0,0,4.48-.28,7.35,7.35,0,0,0-.52-14.59,39.72,39.72,0,0,0-4.5-.11h-224V191.46H368.78v119.7H313.53a33.48,33.48,0,0,0-3.75.1,7.37,7.37,0,0,0-.23,14.67,22.14,22.14,0,0,0,3.36.21c20.37,0,40.74,0,61.11.05,4.59,0,8-1.38,10-5.71V181.74C382.13,177.32,378.67,176.08,374.07,176.1ZM140.76,176c-1.34,0-2.73-1.61-3.94-2.66C125,163,115.07,150.93,105.9,138.26c-5.05-7-9.75-14.2-14.59-21.33-2-3-4.81-4.3-8.38-3.48-3.13.71-5.27,2.87-5.43,5.92A12.17,12.17,0,0,0,79.38,126a314.5,314.5,0,0,0,36.16,47.7c.49.53,1,1.08,2.21,2.45-10,0-18.91.14-27.86-.12-1.64-.05-3.34-1.55-4.84-2.62-14.36-10.32-23.23-24.53-28.66-41.05-5.28-16.06-7.14-32.63-6.74-49.48,0-.6.14-1.2.26-2.22,23.67.71,44.77,8.21,63.91,21.69,21.52,15.17,48.39,53.07,52,73.78C157.39,176.09,149.07,176.22,140.76,176Zm121.65-1.12A6.07,6.07,0,0,1,259,176.1q-34.31.1-68.62,0a12.42,12.42,0,0,1-1.91-.51c4.49-7.59,8.8-14.94,13.25-22.21.34-.56,1.76-.67,2.67-.64,18.83.68,36.33-4.11,52.87-12.81,4.57-2.41,6.11-6.61,4.05-10.55s-6.15-4.65-11-2.78q-13.56,5.22-27.42,9.69c-3,1-6.26.94-9.41,1.37l-.63-1c6.69-7.68,13.15-15.57,20.11-23a247.8,247.8,0,0,1,46-38.31c.74-.47,1.48-.94,2.19-1.44,4-2.86,5-7.08,2.56-10.71s-6.95-4.56-10.87-1.64c-12.4,9.25-24.6,18.76-36.87,28.18-.75.58-1.44,1.24-2.76,2.38A45.35,45.35,0,0,1,239,71.2c.37-.65.8-1.27,1.18-1.91,2.62-4.42,1.88-8.81-1.88-11.17s-8-1-10.87,3.27a50.15,50.15,0,0,0-8.33,22.25c-.75,6.92-.53,13.94-.83,20.91,0,1.29-.18,2.91-.95,3.76a287.65,287.65,0,0,0-39.4,55.77c-.72-1.56-1.24-2.64-1.72-3.74-6.81-15.65-15.09-30.43-26-43.62-1.73-2.09-1.4-3.55-.24-5.56,15-26.24,36.16-46.37,61.84-61.88,29.62-17.9,62-27.9,96.1-32.59,3.08-.42,6.16-.77,9.9-1.23,1,6.83,2.32,13.41,3,20.06,2.62,26.75-.06,52.85-10.14,78S284,158.7,262.41,174.85Z"/><path d="M140.06,284a11.3,11.3,0,0,0,5,4.16c3,1.18,5.94.11,7.94-2.6s2-5.8.16-8.75L140.82,257l1.8-1.09c9.57-5.65,13.82-15.57,11-25.82-2.62-9.74-11.3-16.24-22-16.43-4.37-.08-8.75-.05-13.12,0-6.43.07-9,2.7-9,9.19q0,28.29,0,56.58c0,5.77,2.85,9.13,7.6,9.07,4.6-.06,7.36-3.36,7.38-8.92,0-6.31,0-12.63,0-19.95,1.24,1.8,2,2.76,2.58,3.76C131.39,270.27,135.58,277.22,140.06,284Zm-15.44-55.26c4.66.32,9.54-1.62,13.19,2.8a6.73,6.73,0,0,1,.59,8.34c-3.36,5.39-8.72,3.32-13.78,3.91Z"/><path d="M300.75,258.85h15v4.21c0,6-.14,12,.05,18s6.25,9.43,11.23,6.46c2.89-1.72,3.75-4.43,3.74-7.66q-.06-28.67,0-57.34a16.72,16.72,0,0,0-.08-2.24,7.36,7.36,0,0,0-7.43-6.55,7.28,7.28,0,0,0-7.39,6.56,52.56,52.56,0,0,0-.1,5.62c0,5.81,0,11.63,0,17.56h-15c0-7.59.08-14.7,0-21.81-.08-5.57-4.38-9-9.45-7.7-3.5.89-5.5,3.81-5.51,8.31q0,26.24,0,52.47c0,2.38-.13,4.77.09,7.12a7.27,7.27,0,0,0,7.31,6.66,7.35,7.35,0,0,0,7.5-6.47,37.26,37.26,0,0,0,.1-4.49Z"/><path d="M190.07,228.66c4.62,0,9.26.11,13.85-.23a7.35,7.35,0,0,0-.42-14.67q-13.31-.25-26.61,0c-4.42.08-7.32,3-7.34,7.39q-.13,30,0,60c0,4,2.46,7.1,6.23,7.21q14.4.44,28.82,0c3.71-.12,6.19-3.67,6.12-7.31a7.13,7.13,0,0,0-6.78-7.17c-5.11-.25-10.24-.1-15.36-.15-1.31,0-2.62-.13-3.83-.2V259a5.06,5.06,0,0,1,1-.25c2.87,0,5.75,0,8.62-.08,5.53-.16,8.88-3,8.89-7.53s-3.36-7.38-8.88-7.45c-3.21,0-6.42,0-9.64,0v-15C186.63,228.66,188.35,228.68,190.07,228.66Z"/><path d="M259.38,246.43c-4.23-2.63-8.78-4.76-13.23-7-3.4-1.72-3.1-4.58-2.26-7.41a4.35,4.35,0,0,1,6-3.05,25.34,25.34,0,0,1,6.73,3.79c3.69,2.69,7.59,2.71,10.49-.28s3.17-7.77-.4-10.64a41.1,41.1,0,0,0-12.06-7.15,19.42,19.42,0,0,0-24.44,11.16c-4.38,10.36-.93,21.2,8.51,26.53,3.15,1.78,6.43,3.33,9.6,5.07a27.52,27.52,0,0,1,5,3.2,7.32,7.32,0,0,1,1.26,9.55,6.33,6.33,0,0,1-8.73,2.66,26.16,26.16,0,0,1-6.63-5.25c-3.06-3-7.26-3.72-10.46-1.31-3.4,2.56-4,6.93-1.26,10.65,5.26,7.14,12.27,11.21,22.38,11.66a32.47,32.47,0,0,0,5.5-1c9.17-3,14.07-9.8,15.19-19.07C271.71,258.89,267.48,251.48,259.38,246.43Z"/><path d="M85.81,228.63c5.45-.11,8.79-3.2,8.66-7.73s-3.38-7.18-8.72-7.22c-7.74-.06-15.49-.05-23.24,0-6.72,0-9.25,2.6-9.26,9.33q0,26.43,0,52.86c0,1.87-.09,3.76,0,5.62a7.46,7.46,0,0,0,14.88.18c.17-1.73.07-3.49.07-5.24V258.64c3.85,0,7.22.12,10.57,0,5-.22,8.14-3.2,8.16-7.48s-3.28-7.35-8.49-7.45c-3.34-.07-6.68,0-10,0v-15C74.37,228.65,80.09,228.74,85.81,228.63Z"/><path d="M277,311.22a7.4,7.4,0,1,0,7.21,7.56A7.42,7.42,0,0,0,277,311.22Z"/></svg>