<svg id="Layer_1" data-name="Layer 1" xmlns="http://www.w3.org/2000/svg" viewBox="0 0 404.81 389.23"><path d="M404.55,86.7c-3-6.11-8-8.63-16.59-8.42-13.2.3-26.51.23-39.39.17h-.31q-7.92,0-15.82,0h-6.32l.62-2.49c.54-2.15,1.14-4.26,1.72-6.29a78.9,78.9,0,0,0,3-12.89,50.27,50.27,0,0,0-12.85-40A51.86,51.86,0,0,0,280.29,0h-1.1C257.1.45,238.56,9.66,222.5,28.16a201.29,201.29,0,0,0-12.88,17.18c-1.83,2.64-3.56,5.13-5.33,7.57l-1.61,2.21-1.62-2.21c-1.82-2.47-3.58-5-5.45-7.68a200.33,200.33,0,0,0-13.12-17.38C165.09,8,144.84-1.09,120.6.11,107,.79,93.91,7.79,84.67,19.33c-9.09,11.35-13,25.38-10.73,38.51A113.71,113.71,0,0,0,77,70l.06.21c.54,1.85,1.09,3.77,1.6,5.72l.67,2.51H14c-9.3,0-14,4.71-14,14q0,43.91,0,87.81C0,189.3,4.67,194,13.84,194.06c2.1,0,4.19,0,6.42,0h6v37.64q0,71.28,0,142.57a25.81,25.81,0,0,0,.48,6.23,11.36,11.36,0,0,0,10.59,8.62c1.39.09,2.78.09,4.25.09H363.8c1.43,0,2.78,0,4.13-.09a11.44,11.44,0,0,0,10.79-9.3,29.88,29.88,0,0,0,.43-5.92q0-73.91,0-147.8v-32l2,0c1.17,0,2.37,0,3.56,0,10.23.13,16.68-.41,19.94-9l.16-.42V87.22ZM97.45,50.4A27.53,27.53,0,0,1,125.3,24.05h.47a47.6,47.6,0,0,1,28.45,10.17C169.36,45.7,178,61.54,184.41,75.51l1.3,2.84h-3.12c-6,0-11.89,0-17.76.05h-.44c-5.95,0-11.77,0-17.52,0-9,0-16.35-.07-23.24-.21A26.47,26.47,0,0,1,97.45,50.4ZM24.27,169.77v-67.2H190.41v67.2ZM190.42,365.05H50.58V194.3H190.42ZM220.63,75.46c.91-1.73,1.76-3.4,2.6-5.06,1.78-3.5,3.46-6.82,5.36-10,7.39-12.35,17.19-25.89,33.81-32.7,8-3.27,20-6.81,32,.2A27.32,27.32,0,0,1,307.28,57a26.46,26.46,0,0,1-22.81,21,42.73,42.73,0,0,1-5.82.34H219.1ZM354.93,365H215V194.3h140Zm25.88-253c0,18.2,0,36.14,0,54.09a7.24,7.24,0,0,1-.21,1.51c0,.18-.07.36-.11.55l-.28,1.66H215V102.69H380.81Z"/></svg>